#!OML:ASF I:\Actors\actors\Patient Classification 1\Patient 1\Session 1\Subject1.ASF
:FULLY-SPECIFIED
:DEGREES
694
root 0.751941 17.4462 9.5651 8.71386 2.62709 -8.31852
lowerback -5.09141 1.56717 4.91122
upperback -10.0496 2.21332 1.76552
thorax -7.60271 0.826253 -0.913627
lowerneck -9.04282 -6.36263 -7.99736
upperneck 27.1006 -11.0366 12.2897
head 11.4296 -4.5237 4.46026
rclavicle 2.08724e-015 2.18663e-014
rhumerus -49.6199 16.7443 -101.263
rradius 85.1535
rwrist 43.5558
rhand 25.1884 -27.7021
rfingers 7.12502
rthumb 49.3341 -49.2676
lclavicle 2.08724e-015 2.18663e-014
lhumerus 12.4204 -34.051 82.9655
lradius 146.275
lwrist 24.5622
lhand -24.426 -5.65704
lfingers 7.12502
lthumb 2.06597 24.3127
rfemur -1.3139 24.2476 25.7997
rtibia 2.47355
rfoot -14.6969 -28.4336
rtoes 5.68278
lfemur 7.72762 -47.9584 -15.0017
ltibia -5.334
lfoot -21.5299 53.1761
ltoes 9.2738
695
root 0.754765 17.4428 9.56658 8.78171 3.13759 -8.34934
lowerback -5.21441 1.43534 5.03301
upperback -10.0617 2.02961 1.76205
thorax -7.55252 0.727309 -0.979726
lowerneck -9.12196 -6.36944 -8.1787
upperneck 27.3071 -11.1086 12.5448
head 11.5647 -4.5386 4.58403
rclavicle -7.35503e-015 2.46493e-014
rhumerus -50.2302 15.057 -100.695
rradius 84.4786
rwrist 43.2091
rhand 27.0512 -32.3048
rfingers 7.12502
rthumb 51.0374 -52.9654
lclavicle -7.35503e-015 2.46493e-014
lhumerus 12.5039 -33.9766 82.861
lradius 146.21
lwrist 24.6068
lhand -24.3511 -5.58421
lfingers 7.12502
lthumb 2.13831 24.3848
rfemur -1.33856 24.1721 25.8608
rtibia 2.4456
rfoot -14.905 -28.8085
rtoes 6.01138
lfemur 7.06855 -47.4768 -14.3915
ltibia -5.26711
lfoot -20.4167 52.4011
ltoes 8.19876
696
root 0.757156 17.4388 9.56878 8.82988 3.65283 -8.4025
lowerback -5.32881 1.29836 5.17131
upperback -10.0713 1.83965 1.76668
thorax -7.50592 0.624347 -1.04717
lowerneck -9.08072 -6.39896 -8.23412
upperneck 27.3062 -11.159 12.5995
head 11.57 -4.56287 4.60838
rclavicle -1.0138e-014 7.55382e-015
rhumerus -50.7936 13.3203 -99.8969
rradius 83.819
rwrist 43.761
rhand 27.4507 -34.7128
rfingers 7.12502
rthumb 51.4011 -55.1676
lclavicle -1.0138e-014 7.55382e-015
lhumerus 12.519 -33.9332 82.8045
lradius 146.165
lwrist 24.656
lhand -24.3403 -5.40725
lfingers 7.12502
lthumb 2.14874 24.5617
rfemur -1.34442 24.1405 25.9594
rtibia 2.42714
rfoot -15.2227 -29.1916
rtoes 6.64936
lfemur 6.4822 -47.0305 -13.8127
ltibia -5.21448
lfoot -19.3236 51.6451
ltoes 7.06554
697
root 0.751187 17.4359 9.57125 8.88615 3.69757 -8.49161
lowerback -5.40616 1.28614 5.13503
upperback -10.0792 1.82221 1.83251
thorax -7.47409 0.622162 -0.956011
lowerneck -9.20335 -6.48245 -8.15286
upperneck 27.5747 -11.2479 12.3284
head 11.6882 -4.61275 4.48228
rclavicle 1.09332e-014 1.98785e-015
rhumerus -51.3591 11.6999 -98.9582
rradius 83.2727
rwrist 44.5433
rhand 27.7924 -36.0149
rfingers 7.12502
rthumb 51.7117 -56.2903
lclavicle 1.09332e-014 1.98785e-015
lhumerus 12.4674 -33.8615 82.7833
lradius 146.171
lwrist 24.7308
lhand -24.3791 -5.0835
lfingers 7.12502
lthumb 2.11122 24.8858
rfemur -1.48037 24.0421 26.039
rtibia 2.54393
rfoot -15.275 -29.1049
rtoes 6.70515
lfemur 6.43292 -47.0601 -13.6274
ltibia -5.29023
lfoot -19.2449 51.6769
ltoes 6.90406
698
root 0.748033 17.4337 9.57517 8.88143 3.91933 -8.5557
lowerback -5.46836 1.20912 5.12373
upperback -10.0703 1.71825 1.89325
thorax -7.43635 0.575227 -0.883799
lowerneck -9.40906 -6.64526 -8.02702
upperneck 27.9988 -11.4356 11.9104
head 11.8851 -4.71221 4.27864
rclavicle 1.08338e-014 8.74653e-015
rhumerus -51.8984 10.1774 -97.8935
rradius 82.8389
rwrist 45.11
rhand 28.5981 -37.5456
rfingers 7.12502
rthumb 52.4422 -57.3849
lclavicle 1.08338e-014 8.74653e-015
lhumerus 12.4128 -33.7619 82.759
lradius 146.186
lwrist 24.8718
lhand -24.3377 -4.94343
lfingers 7.12502
lthumb 2.15121 25.0255
rfemur -1.44913 23.9523 26.151
rtibia 2.53323
rfoot -15.3373 -29.2139
rtoes 6.79385
lfemur 6.39675 -47.2105 -13.4901
ltibia -5.31359
lfoot -19.2789 51.6342
ltoes 6.94749
699
root 0.746164 17.4332 9.58031 8.79493 4.21591 -8.57172
lowerback -5.46318 1.10028 5.0938
upperback -10.0464 1.57485 1.93172
thorax -7.42184 0.508619 -0.825796
lowerneck -9.29433 -6.72178 -8.0929
upperneck 28.0272 -11.5311 11.8623
head 11.8858 -4.77189 4.261
rclavicle 9.44227e-015 3.97569e-016
rhumerus -52.4105 8.73888 -96.8027
rradius 82.4238
rwrist 45.3811
rhand 29.6019 -38.3383
rfingers 7.12502
rthumb 53.3487 -57.6074
lclavicle 9.44227e-015 3.97569e-016
lhumerus 12.3814 -33.6449 82.7233
lradius 146.192
lwrist 25.0736
lhand -24.2522 -4.84893
lfingers 7.12502
lthumb 2.23382 25.1191
rfemur -1.25538 24.0058 26.2849
rtibia 2.47912
rfoot -15.5119 -29.5128
rtoes 7.05765
lfemur 6.4453 -47.3639 -13.4765
ltibia -5.30967
lfoot -19.1598 51.5368
ltoes 6.91914
700
root 0.743718 17.4343 9.58564 8.69671 4.45434 -8.54527
lowerback -5.41578 1.00974 5.00738
upperback -10.0303 1.45862 1.95313
thorax -7.43836 0.458079 -0.755247
lowerneck -9.04295 -6.7022 -8.12711
upperneck 27.8769 -11.5139 11.947
head 11.7803 -4.77221 4.30495
rclavicle 2.64384e-014 -7.55382e-015
rhumerus -53.0127 7.63833 -96.0363
rradius 81.9087
rwrist 44.2635
rhand 27.437 -38.618
rfingers 7.12502
rthumb 51.3886 -59.0799
lclavicle 2.64384e-014 -7.55382e-015
lhumerus 12.416 -33.6962 82.7767
lradius 146.082
lwrist 25.1259
lhand -24.1908 -4.68087
lfingers 7.12502
lthumb 2.29313 25.2866
rfemur -1.07665 24.004 26.3653
rtibia 2.48139
rfoot -15.7155 -29.7028
rtoes 7.3283
lfemur 6.57314 -47.5488 -13.5806
ltibia -5.30563
lfoot -19.0592 51.5033
ltoes 6.82409
701
root 0.741568 17.4354 9.59097 8.63167 4.63468 -8.48396
lowerback -5.39437 0.946721 4.88908
upperback -10.0161 1.37662 1.95924
thorax -7.43985 0.426514 -0.682862
lowerneck -8.92215 -6.68376 -8.0711
upperneck 27.8692 -11.5027 11.9463
head 11.747 -4.76617 4.30018
rclavicle 5.26779e-015 2.74323e-014
rhumerus -53.4658 6.21185 -94.7149
rradius 81.7889
rwrist 44.9965
rhand 29.6033 -36.9321
rfingers 7.12502
rthumb 53.3499 -56.2004
lclavicle 5.26779e-015 2.74323e-014
lhumerus 12.546 -34.1173 82.9994
lradius 145.734
lwrist 24.8009
lhand -24.135 -4.6039
lfingers 7.12502
lthumb 2.34699 25.3629
rfemur -0.954375 23.9068 26.3635
rtibia 2.47124
rfoot -15.838 -29.774
rtoes 7.54639
lfemur 6.68705 -47.7354 -13.7213
ltibia -5.30762
lfoot -19.0311 51.5004
ltoes 6.67813
702
root 0.740755 17.436 9.59592 8.60633 4.75143 -8.452
lowerback -5.4214 0.904408 4.82391
upperback -9.99622 1.31831 1.96846
thorax -7.40564 0.403687 -0.636164
lowerneck -8.95805 -6.65979 -8.08791
upperneck 28.0158 -11.52 12.0735
head 11.825 -4.75636 4.35338
rclavicle 1.69961e-014 1.43125e-014
rhumerus -53.9109 5.13845 -93.6495
rradius 81.6507
rwrist 44.8151
rhand 30.932 -35.6738
rfingers 7.12502
rthumb 54.5429 -54.138
lclavicle 1.69961e-014 1.43125e-014
lhumerus 12.7039 -34.5565 83.2189
lradius 145.354
lwrist 24.415
lhand -23.964 -4.49648
lfingers 7.12502
lthumb 2.51208 25.4685
rfemur -0.880633 23.8347 26.3632
rtibia 2.43026
rfoot -15.8047 -29.8417
rtoes 7.39422
lfemur 6.81294 -47.9988 -13.8506
ltibia -5.33173
lfoot -19.1897 51.6254
ltoes 6.85553
703
root 0.740572 17.4362 9.59974 8.60281 4.8284 -8.45204
lowerback -5.45206 0.859518 4.79819
upperback -9.97778 1.25686 1.99398
thorax -7.37127 0.377004 -0.594186
lowerneck -9.08003 -6.57048 -7.92352
upperneck 28.1603 -11.3825 11.9072
head 11.8666 -4.68648 4.28267
rclavicle 3.20043e-014 -3.97569e-015
rhumerus -54.2683 4.39425 -92.802
rradius 81.4428
rwrist 44.2094
rhand 33.5653 -35.1832
rfingers 7.12502
rthumb 56.8805 -51.8683
lclavicle 3.20043e-014 -3.97569e-015
lhumerus 12.8142 -34.6504 83.2986
lradius 145.165
lwrist 24.2461
lhand -23.6923 -4.31141
lfingers 7.12502
lthumb 2.77448 25.6503
rfemur -0.848166 23.7915 26.3822
rtibia 2.4073
rfoot -15.7807 -29.8892
rtoes 7.24394
lfemur 6.9148 -48.2699 -13.9437
ltibia -5.3296
lfoot -19.4612 51.7928
ltoes 7.21774
704
root 0.739859 17.4366 9.6013 8.6058 4.89521 -8.44417
lowerback -5.44624 0.815483 4.7734
upperback -9.97572 1.19939 2.01124
thorax -7.37544 0.350906 -0.56188
lowerneck -9.46562 -6.65844 -7.90107
upperneck 28.6725 -11.4963 11.6757
head 12.1485 -4.73346 4.17684
rclavicle -1.44119e-014 1.55052e-014
rhumerus -54.5761 3.78962 -92.0646
rradius 81.2525
rwrist 43.757
rhand 32.2081 -34.1754
rfingers 7.12502
rthumb 55.6804 -51.8102
lclavicle -1.44119e-014 1.55052e-014
lhumerus 12.7412 -34.2059 83.1028
lradius 145.367
lwrist 24.5085
lhand -23.6513 -4.16242
lfingers 7.12502
lthumb 2.8141 25.7988
rfemur -0.840645 23.8195 26.3851
rtibia 2.40931
rfoot -15.8877 -29.9418
rtoes 7.48538
lfemur 6.9003 -48.3581 -13.9429
ltibia -5.31761
lfoot -19.4521 51.8257
ltoes 7.20967
